<svg xmlns="http://www.w3.org/2000/svg" xmlns:xlink="http://www.w3.org/1999/xlink" id="Layer_1" x="0" y="0" version="1.1" viewBox="0 0 626.2 345.9" xml:space="preserve" style="enable-background:new 0 0 626.2 345.9"><switch><g><path d="M375.7,44.1c31.8,0,61.8,12.4,84.3,34.9s34.9,52.5,34.9,84.3v40h40c28.3,0,51.3,23,51.3,51.3s-23,51.3-51.3,51.3H235.1 c-39.5,0-71.6-32.1-71.6-71.6c0-36.1,27-66.7,62.8-71l27.1-3.3l6.8-26.5c6.5-25.1,21.3-47.9,41.9-64 C323.3,52.9,348.7,44.1,375.7,44.1 M375.7,4.1c-74.2,0-136.6,50.8-154.2,119.5c-55.2,6.7-98,53.7-98,110.7 c0,61.6,50,111.6,111.6,111.6h299.8c50.4,0,91.3-40.9,91.3-91.3s-40.9-91.3-91.3-91.3C535,75.4,463.7,4.1,375.7,4.1L375.7,4.1z"/></g></switch></svg>