<svg xmlns="http://www.w3.org/2000/svg" xmlns:xlink="http://www.w3.org/1999/xlink" id="Layer_1" x="0" y="0" version="1.1" viewBox="0 0 626.2 345.9" xml:space="preserve" style="enable-background:new 0 0 626.2 345.9"><switch><g><g><path d="M93.7,129.3c0.9-2.7,2.4-5.3,4.5-7.8c2.1-2.5,4.6-4.8,7.6-6.7c4.5-2.8,9.7-4.2,15.6-4.2c3.4,0,6.7,0.5,9.7,1.5 c3,1,5.8,2.5,8.1,4.6c2.2,1.9,4,4.2,5.4,6.9c1.3,2.7,2,5.8,2,9.4c0,6.1-1.9,11.6-5.8,16.4c-3.9,4.8-8.6,9-14.3,12.4 c-4.5,2.7-9.3,4.9-14.6,6.8c-5.3,1.9-10.5,2.8-15.5,2.8c-5.8,0-11.3-1-16.5-3c-5.2-2-9.8-4.1-13.8-6.1c-1.9-1-4.1-2.2-6.6-3.3 c-2.5-1.2-5-2.3-7.7-3.3c-2.7-1-5.4-1.9-8.3-2.7c-2.8-0.7-5.6-1.1-8.3-1.1c-3.6,0-6.9,0.6-9.9,1.8c-3.1,1.2-6,2.8-8.8,4.9 c-3.3,2.4-5.6,4.7-6.9,6.8c-1.3,2.2-2.6,4.1-3.8,5.7c-1,1.5-2.2,2.2-3.6,2.2c-0.6,0-1.1-0.3-1.6-0.9c-0.4-0.6-0.7-1.1-0.7-1.6 c0-0.3,0-0.7,0.1-1.3c0.1-0.6,0.6-1.5,1.5-2.6c0.9-1.1,2.3-2.5,4.4-4.2c2-1.7,4.9-3.8,8.8-6.4c5.8-3.9,11.6-6.6,17.4-8.3 c5.8-1.6,10.8-2.5,15-2.5c4.8,0,9.7,0.7,14.8,2.1c5.1,1.4,10.5,3.2,16,5.5c4.6,1.9,9.7,3.9,15.4,5.9c5.7,2,11.5,2.9,17.4,2.6 c4-0.1,7.7-0.7,11-1.8c3.3-1,6.8-2.8,10.4-5.4c3.9-2.8,6.7-6.2,8.6-10c1.9-3.9,2.8-7.7,2.8-11.6c0-5.9-2-10.7-6-14.3 c-4.2-3.7-9.5-5.6-16.1-5.6c-5.2,0-10,1.4-14.5,4.2c-2.4,1.6-4.5,3.5-6.5,5.7c-1.9,2.2-3.4,4.7-4.5,7.5L93.7,129.3z"/><path d="M97.8,99.2c1-1.8,2.6-4,4.6-6.7c2-2.7,4.3-5.1,6.8-7.1c2.7-2.2,5.7-4.1,9-5.7c3.3-1.6,7-2.4,10.8-2.4 c3.7,0,8,0.5,12.8,1.6c4.8,1.1,9.5,2.1,14,3.2c3.9,0.9,7.8,1.8,11.9,2.7c4.1,0.9,7.6,1.4,10.4,1.4c2.5,0,5-0.4,7.5-1.2 c2.5-0.8,4.7-2,6.8-3.7c2.4-1.8,4.2-3.7,5.6-5.7c1.3-2,2.4-3.6,3.1-4.8l2,1.1c-0.7,1.6-2.4,4-4.9,7.1c-2.5,3.1-5.1,5.7-7.6,7.8 c-2.5,2.1-5.3,3.8-8.3,5.2c-3,1.4-6.1,2.1-9.4,2.1c-3.4,0-7.4-0.5-11.9-1.6c-4.5-1-9.3-2.2-14.2-3.3c-6.1-1.5-11-2.6-14.7-3.3 c-3.7-0.7-7.2-1.1-10.5-1.1c-3,0-5.7,0.6-8.1,1.8c-2.5,1.2-4.6,2.6-6.4,4.2c-1.6,1.6-3,3.2-4,4.7c-1,1.5-2.1,3.1-3.1,4.7 L97.8,99.2z"/><path d="M203.2,49.8c-1.2,2.2-2.8,4.1-4.8,5.7s-4.3,2.9-6.8,4.1c-4.8,2.2-9.8,3.3-15.2,3.3c-4.2,0-7.9-0.7-11.3-2 c-3.3-1.3-6.1-3-8.1-5.1c-4.8-4.6-7.1-10.6-7.1-17.9c0-4,0.8-7.8,2.3-11.3c1.6-3.5,3.7-6.7,6.4-9.5c4.2-4.3,9.3-7.7,15.4-10 c6.1-2.4,12.3-3.6,18.5-3.6c5.7,0,11.1,0.9,16.4,2.8c5.3,1.9,10,3.6,14.2,5.2c4.8,1.9,9.7,3.7,14.7,5.2c5.1,1.6,9.7,2.3,14.1,2.3 c4,0,7.7-0.4,11.2-1.3c3.4-0.9,6.8-2.5,10-4.9c2.5-1.8,4.6-3.6,6.1-5.6c1.6-1.9,2.9-3.6,3.9-4.9c1.2-1.6,2.6-2.5,4.2-2.5 c0.6,0,1.2,0.3,1.8,0.8c0.6,0.5,0.9,1.2,0.9,2.1c0,0.7-0.6,1.7-1.9,2.8c-1.3,1.1-2.9,2.4-4.9,3.9c-2,1.5-4.2,3-6.6,4.5 c-2.4,1.5-4.7,2.9-6.9,4.2c-5.2,3-10.4,5.3-15.5,6.9c-5.1,1.6-10.1,2.5-14.8,2.5c-4.2,0-8.4-0.6-12.6-1.7 c-4.2-1.1-9.3-2.9-15.3-5.5c-5.8-2.5-11-4.9-15.5-7.3c-4.5-2.3-9.3-3.5-14.4-3.5c-4.3,0-8.2,0.9-11.7,2.6c-3.5,1.7-6.5,3.9-9,6.6 c-2.1,2.2-4,4.9-5.7,8.1c-1.7,3.2-2.6,6.6-2.8,10.2c-0.1,3.1,0.4,6.2,1.7,9.4c1.3,3.1,3,5.7,5.2,7.8c4.9,4.2,10.8,6.2,17.6,6.2 c2.4,0,4.8-0.2,7.1-0.7c2.4-0.4,4.6-1.3,6.7-2.5c4.2-1.9,7.8-5.1,10.9-9.4L203.2,49.8z"/></g></g></switch></svg>