<svg xmlns="http://www.w3.org/2000/svg" xmlns:xlink="http://www.w3.org/1999/xlink" id="Layer_1" x="0" y="0" version="1.1" viewBox="0 0 626.2 345.9" xml:space="preserve" style="enable-background:new 0 0 626.2 345.9"><style type="text/css">.st0{display:none;opacity:.75}.st1{display:inline}.st2{display:none;opacity:.5}.st3{font-family:&apos;SnellRoundhand&apos;}.st4{font-size:223.2px}</style><switch><g><path d="M375.7,44.1c31.8,0,61.8,12.4,84.3,34.9s34.9,52.5,34.9,84.3v40h40c28.3,0,51.3,23,51.3,51.3s-23,51.3-51.3,51.3H235.1 c-39.5,0-71.6-32.1-71.6-71.6c0-36.1,27-66.7,62.8-71l27.1-3.3l6.8-26.5c6.5-25.1,21.3-47.9,41.9-64 C323.3,52.9,348.7,44.1,375.7,44.1 M375.7,4.1c-74.2,0-136.6,50.8-154.2,119.5c-55.2,6.7-98,53.7-98,110.7 c0,61.6,50,111.6,111.6,111.6h299.8c50.4,0,91.3-40.9,91.3-91.3s-40.9-91.3-91.3-91.3C535,75.4,463.7,4.1,375.7,4.1L375.7,4.1z"/><g class="st0"><path d="M47.7,249.5c0.9-2.7,2.4-5.3,4.5-7.8c2.1-2.5,4.6-4.8,7.6-6.7c4.5-2.8,9.7-4.2,15.6-4.2 c3.4,0,6.7,0.5,9.7,1.5c3,1,5.8,2.5,8.1,4.6c2.2,1.9,4,4.2,5.4,6.9c1.3,2.7,2,5.8,2,9.4c0,6.1-1.9,11.6-5.8,16.4 c-3.9,4.8-8.6,9-14.3,12.4c-4.5,2.7-9.3,4.9-14.6,6.8c-5.3,1.9-10.5,2.8-15.5,2.8c-5.8,0-11.3-1-16.5-3c-5.2-2-9.8-4.1-13.8-6.1 c-1.9-1-4.1-2.2-6.6-3.3c-2.5-1.2-5-2.3-7.7-3.3c-2.7-1-5.4-1.9-8.3-2.7c-2.8-0.7-5.6-1.1-8.3-1.1c-3.6,0-6.9,0.6-9.9,1.8 c-3.1,1.2-6,2.8-8.8,4.9c-3.3,2.4-5.6,4.7-6.9,6.8c-1.3,2.2-2.6,4.1-3.8,5.7c-1,1.5-2.2,2.2-3.6,2.2c-0.6,0-1.1-0.3-1.6-0.9 c-0.4-0.6-0.7-1.1-0.7-1.6c0-0.3,0-0.7,0.1-1.3c0.1-0.6,0.6-1.5,1.5-2.6c0.9-1.1,2.3-2.5,4.4-4.2c2-1.7,4.9-3.8,8.8-6.4 c5.8-3.9,11.6-6.6,17.4-8.3c5.8-1.6,10.8-2.5,15-2.5c4.8,0,9.7,0.7,14.8,2.1c5.1,1.4,10.5,3.2,16,5.5c4.6,1.9,9.7,3.9,15.4,5.9 c5.7,2,11.5,2.9,17.4,2.6c4-0.1,7.7-0.7,11-1.8c3.3-1,6.8-2.8,10.4-5.4c3.9-2.8,6.7-6.2,8.6-10c1.9-3.9,2.8-7.7,2.8-11.6 c0-5.9-2-10.7-6-14.3c-4.2-3.7-9.5-5.6-16.1-5.6c-5.2,0-10,1.4-14.5,4.2c-2.4,1.6-4.5,3.5-6.5,5.7c-1.9,2.2-3.4,4.7-4.5,7.5 L47.7,249.5z" class="st1"/><path d="M5.4,211.2c1-1.8,2.6-4,4.6-6.7c2-2.7,4.3-5.1,6.8-7.1c2.7-2.2,5.7-4.1,9-5.7c3.3-1.6,7-2.4,10.8-2.4 c3.7,0,8,0.5,12.8,1.6c4.8,1.1,9.5,2.1,14,3.2c3.9,0.9,7.8,1.8,11.9,2.7c4.1,0.9,7.6,1.4,10.4,1.4c2.5,0,5-0.4,7.5-1.2 c2.5-0.8,4.7-2,6.8-3.7c2.4-1.8,4.2-3.7,5.6-5.7c1.3-2,2.4-3.6,3.1-4.8l2,1.1c-0.7,1.6-2.4,4-4.9,7.1c-2.5,3.1-5.1,5.7-7.6,7.8 c-2.5,2.1-5.3,3.8-8.3,5.2c-3,1.4-6.1,2.1-9.4,2.1c-3.4,0-7.4-0.5-11.9-1.6c-4.5-1-9.3-2.2-14.2-3.3c-6.1-1.5-11-2.6-14.7-3.3 c-3.7-0.7-7.2-1.1-10.5-1.1c-3,0-5.7,0.6-8.1,1.8c-2.5,1.2-4.6,2.6-6.4,4.2c-1.6,1.6-3,3.2-4,4.7c-1,1.5-2.1,3.1-3.1,4.7 L5.4,211.2z" class="st1"/><path d="M73.6,152.5c-1.2,2.2-2.8,4.1-4.8,5.7s-4.3,2.9-6.8,4.1c-4.8,2.2-9.8,3.3-15.2,3.3c-4.2,0-7.9-0.7-11.3-2 c-3.3-1.3-6.1-3-8.1-5.1c-4.8-4.6-7.1-10.6-7.1-17.9c0-4,0.8-7.8,2.3-11.3c1.6-3.5,3.7-6.7,6.4-9.5c4.2-4.3,9.3-7.7,15.4-10 c6.1-2.4,12.3-3.6,18.5-3.6c5.7,0,11.1,0.9,16.4,2.8c5.3,1.9,10,3.6,14.2,5.2c4.8,1.9,9.7,3.7,14.7,5.2c5.1,1.6,9.7,2.3,14.1,2.3 c4,0,7.7-0.4,11.2-1.3c3.4-0.9,6.8-2.5,10-4.9c2.5-1.8,4.6-3.6,6.1-5.6c1.6-1.9,2.9-3.6,3.9-4.9c1.2-1.6,2.6-2.5,4.2-2.5 c0.6,0,1.2,0.3,1.8,0.8c0.6,0.5,0.9,1.2,0.9,2.1c0,0.7-0.6,1.7-1.9,2.8c-1.3,1.1-2.9,2.4-4.9,3.9c-2,1.5-4.2,3-6.6,4.5 c-2.4,1.5-4.7,2.9-6.9,4.2c-5.2,3-10.4,5.3-15.5,6.9c-5.1,1.6-10.1,2.5-14.8,2.5c-4.2,0-8.4-0.6-12.6-1.7 c-4.2-1.1-9.3-2.9-15.3-5.5c-5.8-2.5-11-4.9-15.5-7.3c-4.5-2.3-9.3-3.5-14.4-3.5c-4.3,0-8.2,0.9-11.7,2.6c-3.5,1.7-6.5,3.9-9,6.6 c-2.1,2.2-4,4.9-5.7,8.1c-1.7,3.2-2.6,6.6-2.8,10.2c-0.1,3.1,0.4,6.2,1.7,9.4c1.3,3.1,3,5.7,5.2,7.8c4.9,4.2,10.8,6.2,17.6,6.2 c2.4,0,4.8-0.2,7.1-0.7c2.4-0.4,4.6-1.3,6.7-2.5c4.2-1.9,7.8-5.1,10.9-9.4L73.6,152.5z" class="st1"/></g><g><path d="M93.7,129.3c0.9-2.7,2.4-5.3,4.5-7.8c2.1-2.5,4.6-4.8,7.6-6.7c4.5-2.8,9.7-4.2,15.6-4.2c3.4,0,6.7,0.5,9.7,1.5 c3,1,5.8,2.5,8.1,4.6c2.2,1.9,4,4.2,5.4,6.9c1.3,2.7,2,5.8,2,9.4c0,6.1-1.9,11.6-5.8,16.4c-3.9,4.8-8.6,9-14.3,12.4 c-4.5,2.7-9.3,4.9-14.6,6.8c-5.3,1.9-10.5,2.8-15.5,2.8c-5.8,0-11.3-1-16.5-3c-5.2-2-9.8-4.1-13.8-6.1c-1.9-1-4.1-2.2-6.6-3.3 c-2.5-1.2-5-2.3-7.7-3.3c-2.7-1-5.4-1.9-8.3-2.7c-2.8-0.7-5.6-1.1-8.3-1.1c-3.6,0-6.9,0.6-9.9,1.8c-3.1,1.2-6,2.8-8.8,4.9 c-3.3,2.4-5.6,4.7-6.9,6.8c-1.3,2.2-2.6,4.1-3.8,5.7c-1,1.5-2.2,2.2-3.6,2.2c-0.6,0-1.1-0.3-1.6-0.9c-0.4-0.6-0.7-1.1-0.7-1.6 c0-0.3,0-0.7,0.1-1.3c0.1-0.6,0.6-1.5,1.5-2.6c0.9-1.1,2.3-2.5,4.4-4.2c2-1.7,4.9-3.8,8.8-6.4c5.8-3.9,11.6-6.6,17.4-8.3 c5.8-1.6,10.8-2.5,15-2.5c4.8,0,9.7,0.7,14.8,2.1c5.1,1.4,10.5,3.2,16,5.5c4.6,1.9,9.7,3.9,15.4,5.9c5.7,2,11.5,2.9,17.4,2.6 c4-0.1,7.7-0.7,11-1.8c3.3-1,6.8-2.8,10.4-5.4c3.9-2.8,6.7-6.2,8.6-10c1.9-3.9,2.8-7.7,2.8-11.6c0-5.9-2-10.7-6-14.3 c-4.2-3.7-9.5-5.6-16.1-5.6c-5.2,0-10,1.4-14.5,4.2c-2.4,1.6-4.5,3.5-6.5,5.7c-1.9,2.2-3.4,4.7-4.5,7.5L93.7,129.3z"/><path d="M97.8,99.2c1-1.8,2.6-4,4.6-6.7c2-2.7,4.3-5.1,6.8-7.1c2.7-2.2,5.7-4.1,9-5.7c3.3-1.6,7-2.4,10.8-2.4 c3.7,0,8,0.5,12.8,1.6c4.8,1.1,9.5,2.1,14,3.2c3.9,0.9,7.8,1.8,11.9,2.7c4.1,0.9,7.6,1.4,10.4,1.4c2.5,0,5-0.4,7.5-1.2 c2.5-0.8,4.7-2,6.8-3.7c2.4-1.8,4.2-3.7,5.6-5.7c1.3-2,2.4-3.6,3.1-4.8l2,1.1c-0.7,1.6-2.4,4-4.9,7.1c-2.5,3.1-5.1,5.7-7.6,7.8 c-2.5,2.1-5.3,3.8-8.3,5.2c-3,1.4-6.1,2.1-9.4,2.1c-3.4,0-7.4-0.5-11.9-1.6c-4.5-1-9.3-2.2-14.2-3.3c-6.1-1.5-11-2.6-14.7-3.3 c-3.7-0.7-7.2-1.1-10.5-1.1c-3,0-5.7,0.6-8.1,1.8c-2.5,1.2-4.6,2.6-6.4,4.2c-1.6,1.6-3,3.2-4,4.7c-1,1.5-2.1,3.1-3.1,4.7 L97.8,99.2z"/><path d="M203.2,49.8c-1.2,2.2-2.8,4.1-4.8,5.7s-4.3,2.9-6.8,4.1c-4.8,2.2-9.8,3.3-15.2,3.3c-4.2,0-7.9-0.7-11.3-2 c-3.3-1.3-6.1-3-8.1-5.1c-4.8-4.6-7.1-10.6-7.1-17.9c0-4,0.8-7.8,2.3-11.3c1.6-3.5,3.7-6.7,6.4-9.5c4.2-4.3,9.3-7.7,15.4-10 c6.1-2.4,12.3-3.6,18.5-3.6c5.7,0,11.1,0.9,16.4,2.8c5.3,1.9,10,3.6,14.2,5.2c4.8,1.9,9.7,3.7,14.7,5.2c5.1,1.6,9.7,2.3,14.1,2.3 c4,0,7.7-0.4,11.2-1.3c3.4-0.9,6.8-2.5,10-4.9c2.5-1.8,4.6-3.6,6.1-5.6c1.6-1.9,2.9-3.6,3.9-4.9c1.2-1.6,2.6-2.5,4.2-2.5 c0.6,0,1.2,0.3,1.8,0.8c0.6,0.5,0.9,1.2,0.9,2.1c0,0.7-0.6,1.7-1.9,2.8c-1.3,1.1-2.9,2.4-4.9,3.9c-2,1.5-4.2,3-6.6,4.5 c-2.4,1.5-4.7,2.9-6.9,4.2c-5.2,3-10.4,5.3-15.5,6.9c-5.1,1.6-10.1,2.5-14.8,2.5c-4.2,0-8.4-0.6-12.6-1.7 c-4.2-1.1-9.3-2.9-15.3-5.5c-5.8-2.5-11-4.9-15.5-7.3c-4.5-2.3-9.3-3.5-14.4-3.5c-4.3,0-8.2,0.9-11.7,2.6c-3.5,1.7-6.5,3.9-9,6.6 c-2.1,2.2-4,4.9-5.7,8.1c-1.7,3.2-2.6,6.6-2.8,10.2c-0.1,3.1,0.4,6.2,1.7,9.4c1.3,3.1,3,5.7,5.2,7.8c4.9,4.2,10.8,6.2,17.6,6.2 c2.4,0,4.8-0.2,7.1-0.7c2.4-0.4,4.6-1.3,6.7-2.5c4.2-1.9,7.8-5.1,10.9-9.4L203.2,49.8z"/></g><g class="st0"><path d="M313.9,246.6c0.7-2,1.8-4,3.4-5.9c1.6-1.9,3.5-3.6,5.7-5c3.4-2.1,7.3-3.2,11.8-3.2c2.6,0,5,0.4,7.3,1.1 c2.3,0.7,4.3,1.9,6.1,3.4c1.7,1.5,3,3.2,4,5.2c1,2,1.5,4.4,1.5,7.1c0,4.6-1.5,8.7-4.4,12.3c-2.9,3.6-6.5,6.7-10.7,9.3 c-3.4,2-7,3.7-11,5.1c-4,1.4-7.9,2.1-11.7,2.1c-4.4,0-8.5-0.8-12.4-2.3c-3.9-1.5-7.4-3-10.4-4.6c-1.5-0.8-3.1-1.6-5-2.5 c-1.8-0.9-3.8-1.7-5.8-2.5c-2-0.8-4.1-1.5-6.2-2c-2.1-0.6-4.2-0.8-6.2-0.8c-2.7,0-5.2,0.4-7.5,1.3c-2.3,0.9-4.5,2.1-6.6,3.7 c-2.5,1.8-4.2,3.5-5.2,5.1c-1,1.6-2,3.1-2.9,4.3c-0.8,1.1-1.7,1.7-2.7,1.7c-0.4,0-0.8-0.2-1.2-0.7c-0.3-0.4-0.5-0.8-0.5-1.2 c0-0.2,0-0.6,0.1-1c0.1-0.4,0.4-1.1,1.1-1.9c0.7-0.8,1.8-1.9,3.3-3.2c1.5-1.3,3.7-2.9,6.6-4.8c4.4-2.9,8.7-5,13.1-6.2 c4.4-1.2,8.1-1.8,11.2-1.8c3.6,0,7.3,0.5,11.2,1.6c3.9,1.1,7.9,2.4,12,4.1c3.5,1.5,7.3,2.9,11.6,4.4c4.3,1.5,8.6,2.2,13.1,1.9 c3-0.1,5.8-0.6,8.3-1.3c2.5-0.8,5.1-2.1,7.8-4c2.9-2.1,5.1-4.6,6.5-7.6c1.4-2.9,2.1-5.8,2.1-8.7c0-4.5-1.5-8.1-4.5-10.7 c-3.1-2.8-7.2-4.2-12.1-4.2c-3.9,0-7.6,1.1-10.9,3.2c-1.8,1.2-3.4,2.7-4.9,4.3c-1.5,1.6-2.6,3.5-3.4,5.6L313.9,246.6z" class="st1"/><path d="M300.1,211.7c0.8-1.3,1.9-3,3.4-5c1.5-2,3.2-3.8,5.1-5.4c2-1.6,4.3-3.1,6.8-4.2c2.5-1.2,5.2-1.8,8.1-1.8 c2.8,0,6,0.4,9.7,1.2c3.6,0.8,7.1,1.6,10.5,2.4c2.9,0.7,5.9,1.3,9,2c3.1,0.7,5.7,1.1,7.8,1.1c1.9,0,3.8-0.3,5.6-0.9 c1.8-0.6,3.6-1.5,5.1-2.8c1.8-1.3,3.2-2.8,4.2-4.3c1-1.5,1.8-2.7,2.4-3.6l1.5,0.8c-0.6,1.2-1.8,3-3.7,5.4 c-1.9,2.4-3.8,4.3-5.7,5.9c-1.9,1.6-4,2.9-6.2,3.9c-2.2,1.1-4.6,1.6-7.1,1.6c-2.6,0-5.6-0.4-9-1.2c-3.4-0.8-7-1.6-10.7-2.5 c-4.6-1.1-8.3-2-11.1-2.5c-2.8-0.6-5.4-0.8-7.9-0.8c-2.2,0-4.3,0.4-6.1,1.3c-1.8,0.9-3.4,2-4.8,3.2c-1.2,1.2-2.2,2.4-3,3.5 c-0.8,1.1-1.6,2.3-2.4,3.5L300.1,211.7z" class="st1"/><path d="M366.5,155.9c-0.9,1.7-2.1,3.1-3.6,4.3c-1.5,1.2-3.2,2.2-5.1,3.1c-3.6,1.7-7.4,2.5-11.4,2.5 c-3.1,0-6-0.5-8.5-1.5c-2.5-1-4.6-2.3-6.1-3.9c-3.6-3.5-5.4-7.9-5.4-13.4c0-3,0.6-5.8,1.8-8.5c1.2-2.6,2.8-5,4.8-7.1 c3.1-3.2,7-5.8,11.6-7.6c4.6-1.8,9.2-2.7,13.9-2.7c4.3,0,8.4,0.7,12.3,2.1c4,1.4,7.5,2.7,10.7,3.9c3.6,1.5,7.3,2.8,11.1,3.9 c3.8,1.2,7.3,1.8,10.6,1.8c3,0,5.8-0.3,8.4-1c2.6-0.7,5.1-1.9,7.6-3.7c1.9-1.3,3.4-2.7,4.6-4.2c1.2-1.5,2.2-2.7,2.9-3.7 c0.9-1.2,2-1.8,3.2-1.8c0.4,0,0.9,0.2,1.3,0.6c0.4,0.4,0.7,0.9,0.7,1.6c0,0.6-0.5,1.3-1.4,2.1c-1,0.8-2.2,1.8-3.7,2.9 c-1.5,1.1-3.2,2.2-5,3.4c-1.8,1.1-3.5,2.2-5.2,3.2c-3.9,2.2-7.8,4-11.7,5.2c-3.9,1.2-7.6,1.8-11.2,1.8c-3.1,0-6.3-0.4-9.5-1.3 c-3.2-0.8-7-2.2-11.5-4.1c-4.4-1.9-8.3-3.7-11.7-5.5c-3.4-1.7-7-2.6-10.8-2.6c-3.2,0-6.2,0.6-8.8,1.9c-2.6,1.3-4.9,2.9-6.8,5 c-1.6,1.7-3,3.7-4.3,6.1c-1.3,2.4-2,5-2.1,7.6c-0.1,2.4,0.3,4.7,1.3,7.1c0.9,2.3,2.3,4.3,3.9,5.9c3.7,3.1,8.1,4.7,13.3,4.7 c1.8,0,3.6-0.2,5.4-0.5c1.8-0.3,3.5-1,5-1.8c3.1-1.5,5.9-3.8,8.2-7.1L366.5,155.9z" class="st1"/></g><text class="st2 st3 st4" transform="matrix(1 0 0 1 -58.7988 281.6943)">Ξ</text></g></switch></svg>